<svg width="64" height="64" viewBox="0 0 64 64" fill="none" xmlns="http://www.w3.org/2000/svg">
<path d="M53.8086 15.8237C53.9848 15.8824 54.1739 15.8909 54.3547 15.8482C54.5354 15.8055 54.7007 15.7134 54.832 15.582L61.707 8.707C61.8383 8.5757 61.9305 8.41044 61.9731 8.22972C62.0158 8.04901 62.0073 7.85998 61.9486 7.68382C61.8899 7.50765 61.7833 7.35131 61.6408 7.2323C61.4983 7.11329 61.3254 7.03632 61.1416 7.01L57.5088 6.4909L56.99 2.8584C56.9637 2.67459 56.8867 2.50174 56.7677 2.3592C56.6487 2.21667 56.4924 2.11009 56.3162 2.05139C56.14 1.9927 55.951 1.98421 55.7703 2.02689C55.5896 2.06956 55.4243 2.16171 55.293 2.293L48.418 9.168C48.2867 9.29933 48.1946 9.46465 48.152 9.64542C48.1094 9.82619 48.118 10.0153 48.1768 10.1914L49.2312 13.3547L47.359 15.2269C42.1667 10.4051 35.2895 7.81385 28.2063 8.01036C21.1232 8.20688 14.4002 11.1755 9.48326 16.2777C4.56632 21.38 1.8483 28.2082 1.91382 35.2937C1.97933 42.3792 4.82314 49.156 9.83358 54.1664C14.844 59.1769 21.6208 62.0207 28.7063 62.0862C35.7919 62.1517 42.6201 59.4337 47.7223 54.5168C52.8245 49.5998 55.7931 42.8768 55.9897 35.7937C56.1862 28.7106 53.5949 21.8333 48.7731 16.641L50.6449 14.7692L53.8086 15.8237ZM54 35C54.0085 40.7512 52.0368 46.33 48.4163 50.7987C44.7958 55.2673 39.7472 58.3532 34.1193 59.5378C28.4914 60.7223 22.6272 59.9332 17.5126 57.3031C12.398 54.673 8.34478 50.3622 6.03431 45.0955C3.72384 39.8288 3.29698 33.9272 4.82549 28.3828C6.35401 22.8384 9.7447 17.9893 14.4276 14.6505C19.1105 11.3118 24.8 9.68698 30.5398 10.0493C36.2796 10.4116 41.7197 12.7389 45.9456 16.64L41.688 20.8979C37.9928 17.5713 33.1446 15.8191 28.1764 16.0146C23.2082 16.2101 18.5127 18.3379 15.0903 21.9447C11.6679 25.5514 9.78922 30.352 9.85441 35.3236C9.9196 40.2953 11.9236 45.0449 15.4393 48.5607C18.9551 52.0765 23.7048 54.0804 28.6764 54.1456C33.648 54.2108 38.4486 52.3321 42.0553 48.9097C45.6621 45.4873 47.7899 40.7918 47.9854 35.8236C48.1809 30.8554 46.4287 26.0073 43.1021 22.312L47.36 18.0544C51.6322 22.6628 54.0041 28.716 54 35V35ZM28.293 35.707C28.3858 35.7999 28.4961 35.8736 28.6174 35.9238C28.7387 35.9741 28.8687 36 29 36C29.1313 36 29.2614 35.9741 29.3827 35.9238C29.504 35.8736 29.6142 35.7999 29.707 35.707L33.8851 31.5289C34.7603 32.7587 35.1414 34.2723 34.9529 35.7699C34.7645 37.2674 34.0202 38.6395 32.8677 39.6141C31.7152 40.5887 30.2385 41.0947 28.7305 41.0317C27.2224 40.9688 25.7931 40.3415 24.7258 39.2742C23.6585 38.2069 23.0312 36.7776 22.9683 35.2695C22.9053 33.7615 23.4113 32.2848 24.3859 31.1323C25.3605 29.9798 26.7326 29.2355 28.2301 29.0471C29.7277 28.8586 31.2414 29.2398 32.4711 30.1149L28.293 34.293C28.2001 34.3858 28.1264 34.496 28.0761 34.6173C28.0259 34.7387 28 34.8687 28 35C28 35.1313 28.0259 35.2613 28.0761 35.3827C28.1264 35.504 28.2001 35.6142 28.293 35.707V35.707ZM33.8976 28.6884C32.2848 27.4353 30.2551 26.8441 28.2216 27.0351C26.1882 27.2261 24.3041 28.185 22.9528 29.7165C21.6016 31.2479 20.8848 33.2368 20.9486 35.2782C21.0123 37.3196 21.8518 39.2599 23.2959 40.7041C24.7401 42.1483 26.6804 42.9877 28.7218 43.0514C30.7632 43.1152 32.7521 42.3985 34.2836 41.0472C35.815 39.696 36.7739 37.8118 36.9649 35.7784C37.1559 33.745 36.5647 31.7152 35.3116 30.1024L41.6886 23.7255C44.6381 27.0429 46.1788 31.379 45.9837 35.8137C45.7885 40.2484 43.8729 44.4325 40.6434 47.4779C37.414 50.5234 33.1248 52.1905 28.6863 52.1254C24.2478 52.0604 20.0094 50.2683 16.8706 47.1294C13.7318 43.9906 11.9396 39.7522 11.8746 35.3137C11.8095 30.8752 13.4766 26.5861 16.5221 23.3566C19.5676 20.1271 23.7516 18.2115 28.1863 18.0164C32.621 17.8212 36.9572 19.3619 40.2745 22.3114L33.8976 28.6884ZM55.293 5.1211L55.6348 7.5166C55.6655 7.73073 55.7648 7.92913 55.9178 8.08205C56.0708 8.23496 56.2693 8.33414 56.4834 8.3647L58.8789 8.707L53.8545 13.731L51.166 12.8345L50.2695 10.1445L55.293 5.1211Z" fill="white"/>
</svg>
